<?xml version="1.0" standalone="no"?><!DOCTYPE svg PUBLIC "-//W3C//DTD SVG 1.1//EN" "http://www.w3.org/Graphics/SVG/1.1/DTD/svg11.dtd"><svg t="1716371664838" class="icon" viewBox="0 0 1024 1024" version="1.1" xmlns="http://www.w3.org/2000/svg" p-id="2538" xmlns:xlink="http://www.w3.org/1999/xlink" width="200" height="200"><path d="M512.029676 663.540392c97.863888 0 177.468924-79.305207 177.468924-176.812985L689.4986 273.750781c0-124.120902-79.605036-194.297195-177.468924-194.297195-40.698934 0-94.097098 25.361621-121.103172 51.922557 0 0-53.383838 43.554982-56.42715 158.665673 0 1.195222 0.11768 2.357697 0.207731 3.074012-0.11768 1.699712-0.207731 3.341095-0.207731 5.042853l0 188.568726C334.500377 584.235185 414.135088 663.540392 512.029676 663.540392z" fill="#ffffff" p-id="2539"></path><path d="M787.592732 499.705999C787.502681 501.586836 788.099269 497.827209 787.592732 499.705999L787.592732 499.705999z" fill="#ffffff" p-id="2540"></path><path d="M767.131725 469.974861c-14.246469 0-26.502607 11.43647-26.786063 25.616424-8.593725 115.736954-108.84601 206.318996-228.222865 206.318996-119.407554 0-220.098837-90.617857-228.691539-206.355835-2.27788-12.418844-13.126972-21.979594-26.204825-21.979594-14.151301 0-25.596981 12.45466-26.487258 26.380834C242.74665 633.357975 347.325473 740.423433 482.107179 754.455008L482.107179 914.409023c0 16.620539 13.544481 30.137391 30.224372 30.137391 16.647145 0 30.193673-13.515828 30.193673-30.137391L542.525224 754.455008C675.837462 740.221842 780.9965 632.182196 793.260825 499.705999l-0.00921 0C793.251615 485.281475 781.557272 469.974861 767.131725 469.974861z" fill="#ffffff" p-id="2541"></path></svg>