<?xml version="1.0" standalone="no"?><!DOCTYPE svg PUBLIC "-//W3C//DTD SVG 1.1//EN" "http://www.w3.org/Graphics/SVG/1.1/DTD/svg11.dtd"><svg t="1716382249415" class="icon" viewBox="0 0 1024 1024" version="1.1" xmlns="http://www.w3.org/2000/svg" p-id="11938" xmlns:xlink="http://www.w3.org/1999/xlink" width="200" height="200"><path d="M734.370909 69.818182C897.396364 69.818182 1024 175.313455 1024 380.672c0 105.611636-17.268364 168.657455-95.581091 278.434909-54.970182 77.056-163.188364 172.334545-325.725091 287.930182l-24.180363 17.082182a116.363636 116.363636 0 0 1-134.958546-1.024l-23.575273-17.128728C258.327273 827.694545 150.760727 733.044364 96.139636 659.944727 20.712727 559.010909 0.535273 488.494545 0.232727 388.561455v-8.61091C0.232727 181.294545 129.326545 69.818182 292.491636 69.818182c75.869091 0 148.061091 40.448 217.274182 117.992727l2.839273 3.258182 4.421818-4.631273c71.633455-74.379636 141.335273-114.082909 210.618182-116.503273z m0 93.090909c-51.130182 0-114.501818 41.658182-187.392 129.885091l-37.748364 45.707636-35.444363-47.522909C408.738909 203.729455 347.950545 162.909091 292.538182 162.909091 177.966545 162.909091 93.323636 235.985455 93.323636 379.904v8.471273c0.232727 81.058909 14.894545 132.189091 77.381819 215.831272 48.919273 65.466182 154.647273 157.928727 315.880727 275.10691l11.543273 8.378181a23.272727 23.272727 0 0 0 26.996363 0.186182c167.982545-117.713455 277.550545-212.805818 327.517091-282.833454C918.784 512.302545 930.909091 468.084364 930.909091 380.695273 930.909091 230.865455 849.361455 162.909091 734.370909 162.909091zM208.290909 349.090909a46.545455 46.545455 0 0 1 47.662546 45.381818c1.000727 40.750545 18.152727 75.031273 53.620363 105.495273a46.545455 46.545455 0 0 1-60.648727 70.609455c-54.946909-47.173818-84.363636-105.984-86.016-173.800728a46.545455 46.545455 0 0 1 45.381818-47.662545z" fill="#d81e06" p-id="11939"></path></svg>